<svg width="48" height="48" viewBox="0 0 48 48" fill="none" xmlns="http://www.w3.org/2000/svg">
<g id="streamline-emojis:cat">
<path id="Vector" opacity="0.15" d="M10.6094 43.9399C10.6094 44.4862 12.2709 45.0102 15.2283 45.3965C18.1858 45.7828 22.1969 45.9999 26.3794 45.9999C30.5618 45.9999 34.573 45.7828 37.5304 45.3965C40.4879 45.0102 42.1494 44.4862 42.1494 43.9399C42.1494 43.3935 40.4879 42.8696 37.5304 42.4832C34.573 42.0969 30.5618 41.8799 26.3794 41.8799C22.1969 41.8799 18.1858 42.0969 15.2283 42.4832C12.2709 42.8696 10.6094 43.3935 10.6094 43.9399Z" fill="#45413C"/>
<path id="Vector_2" d="M45.0018 10.12C45.1255 7.8095 44.4158 5.53139 43.0018 3.69997C42.8356 3.46775 42.6217 3.2738 42.3743 3.13117C42.1269 2.98854 41.8519 2.90052 41.5677 2.87305C41.2835 2.84558 40.9967 2.87928 40.7266 2.97189C40.4565 3.0645 40.2093 3.21387 40.0018 3.40997C39.6353 3.78382 39.4301 4.28646 39.4301 4.80997C39.4301 5.33347 39.6353 5.83611 40.0018 6.20997C40.5112 6.7244 40.9133 7.33501 41.1845 8.00627C41.4558 8.67753 41.5908 9.39603 41.5818 10.12C41.5818 13.34 39.9718 16.76 33.9018 18.12C33.3768 18.0296 32.8444 17.9895 32.3118 18L20.4918 18.58C19.8247 18.6127 19.1618 18.4576 18.5784 18.1323C17.9951 17.807 17.5146 17.3247 17.1918 16.74L15.5218 12.86C15.0926 12.2096 14.5173 11.6685 13.8418 11.28C13.6392 10.6247 13.3571 9.99667 13.0018 9.40997C12.5388 8.56674 11.845 7.87296 11.0018 7.40997C10.9015 7.35891 10.7902 7.33315 10.6777 7.33495C10.5652 7.33674 10.4548 7.36604 10.3562 7.42027C10.2576 7.47451 10.1737 7.55204 10.112 7.64611C10.0502 7.74017 10.0124 7.84793 10.0018 7.95997L9.77178 10.51C9.00572 10.5558 8.25891 10.7683 7.58355 11.1328C6.90819 11.4972 6.32058 12.0048 5.86178 12.62L5.07178 13.81L2.88178 16C2.70518 16.1773 2.58307 16.4015 2.5299 16.6461C2.47673 16.8906 2.49474 17.1453 2.58178 17.38L3.32178 20.6C3.49405 21.0582 3.76946 21.4706 4.12668 21.8052C4.4839 22.1399 4.91335 22.3879 5.38178 22.53L9.22178 23.68C9.68238 23.8204 10.0982 24.0788 10.428 24.4297C10.7578 24.7805 10.9901 25.2116 11.1018 25.68L11.9218 29.09C12.5292 30.92 13.7023 32.5098 15.2718 33.63C15.4317 34.8067 15.5152 35.9925 15.5218 37.18C15.2878 38.9243 14.9539 40.6539 14.5218 42.36C14.4815 42.5602 14.4865 42.7669 14.5364 42.9649C14.5864 43.163 14.6799 43.3474 14.8103 43.5046C14.9407 43.6618 15.1046 43.7879 15.29 43.8736C15.4753 43.9593 15.6776 44.0025 15.8818 44H16.7718C17.0173 44.0009 17.2584 43.9354 17.4697 43.8104C17.681 43.6854 17.8545 43.5056 17.9718 43.29C18.9118 41.58 21.2318 37.23 21.6618 35.29C22.3712 35.2214 23.0696 35.067 23.7418 34.83L27.0018 33.59C27.9257 33.2592 28.9309 33.2311 29.8718 33.51C30.6881 33.7484 31.5252 33.9091 32.3718 33.99C32.9024 35.5758 33.9615 36.9314 35.3718 37.83L34.8618 42.48C34.8404 42.6738 34.8606 42.8699 34.9211 43.0552C34.9816 43.2406 35.0809 43.4109 35.2125 43.5548C35.3441 43.6987 35.5049 43.8128 35.6841 43.8896C35.8633 43.9664 36.0569 44.004 36.2518 44H37.7618C38.0625 44.0024 38.3556 43.9057 38.596 43.725C38.8364 43.5443 39.0106 43.2895 39.0918 43L40.8918 35.81C40.4877 34.7121 40.2549 33.5586 40.2018 32.39L40.6218 26.97C40.7125 25.8666 40.5824 24.7561 40.239 23.7036C39.8956 22.6511 39.3458 21.6776 38.6218 20.84L38.3518 20.56C42.0018 18.89 44.9018 15.67 45.0018 10.12Z" fill="#FFCC99"/>
<path id="Vector_3" d="M3.62178 19.63C3.5255 19.3772 3.50449 19.102 3.56128 18.8376C3.61806 18.5732 3.75022 18.3309 3.94178 18.14L6.37178 15.83L7.22178 14.55C7.71671 13.8887 8.34966 13.3431 9.07668 12.9511C9.8037 12.5591 10.6073 12.3301 11.4318 12.28L11.6818 9.52997C11.6936 9.41752 11.7315 9.30936 11.7923 9.21403C11.8531 9.11869 11.9352 9.03879 12.0322 8.98061C12.1291 8.92243 12.2383 8.88758 12.351 8.87879C12.4637 8.87 12.577 8.88752 12.6818 8.92997C12.2561 8.31459 11.695 7.80489 11.0418 7.43997C10.9415 7.38891 10.8302 7.36315 10.7177 7.36495C10.6052 7.36674 10.4948 7.39604 10.3962 7.45027C10.2976 7.50451 10.2137 7.58204 10.152 7.67611C10.0902 7.77017 10.0524 7.87792 10.0418 7.98997L9.81178 10.54C9.04572 10.5858 8.29891 10.7983 7.62355 11.1628C6.94819 11.5272 6.36058 12.0348 5.90178 12.65L5.11178 13.84L2.88178 16C2.70518 16.1773 2.58307 16.4015 2.5299 16.6461C2.47673 16.8906 2.49474 17.1453 2.58178 17.38L3.32178 20.6C3.48889 21.0527 3.75941 21.4602 4.11178 21.79L3.62178 19.63ZM19.3418 18.9C19.6888 19.5328 20.2064 20.0557 20.8357 20.4092C21.4649 20.7628 22.1807 20.9328 22.9018 20.9L35.6218 20.28C36.1959 20.282 36.7685 20.3389 37.3318 20.45C38.2455 20.2473 39.1391 19.9628 40.0018 19.6C42.8718 17.79 44.9118 14.78 45.0018 10.12C45.1273 7.80928 44.4174 5.53055 43.0018 3.69997C42.8356 3.46775 42.6217 3.2738 42.3743 3.13117C42.1269 2.98854 41.8519 2.90052 41.5677 2.87305C41.2835 2.84558 40.9967 2.87928 40.7266 2.97189C40.4565 3.0645 40.2093 3.21387 40.0018 3.40997C39.6353 3.78382 39.4301 4.28646 39.4301 4.80997C39.4301 5.33347 39.6353 5.83611 40.0018 6.20997C40.5112 6.7244 40.9133 7.33501 41.1845 8.00627C41.4558 8.67753 41.5908 9.39603 41.5818 10.12C41.5818 13.34 39.9718 16.76 33.9018 18.12C33.3768 18.0296 32.8444 17.9895 32.3118 18L20.4918 18.58C20.0057 18.5901 19.5227 18.5016 19.0718 18.32L19.3418 18.9Z" fill="#FFE8D1"/>
<path id="Vector_4" d="M45.0018 10.12C45.1255 7.8095 44.4158 5.53139 43.0018 3.69997C42.8356 3.46775 42.6217 3.2738 42.3743 3.13117C42.1269 2.98854 41.8519 2.90052 41.5677 2.87305C41.2835 2.84558 40.9967 2.87928 40.7266 2.97189C40.4565 3.0645 40.2093 3.21387 40.0018 3.40997C39.6353 3.78382 39.4301 4.28646 39.4301 4.80997C39.4301 5.33347 39.6353 5.83611 40.0018 6.20997C40.5112 6.7244 40.9133 7.33501 41.1845 8.00627C41.4558 8.67753 41.5908 9.39603 41.5818 10.12C41.5818 13.34 39.9718 16.76 33.9018 18.12C33.3768 18.0296 32.8444 17.9895 32.3118 18L20.4918 18.58C19.8247 18.6127 19.1618 18.4576 18.5784 18.1323C17.9951 17.807 17.5146 17.3247 17.1918 16.74L15.5218 12.86C15.0926 12.2096 14.5173 11.6685 13.8418 11.28C13.6392 10.6247 13.3571 9.99667 13.0018 9.40997C12.5388 8.56674 11.845 7.87296 11.0018 7.40997C10.9015 7.35891 10.7902 7.33315 10.6777 7.33495C10.5652 7.33674 10.4548 7.36604 10.3562 7.42027C10.2576 7.47451 10.1737 7.55204 10.112 7.64611C10.0502 7.74017 10.0124 7.84793 10.0018 7.95997L9.77178 10.51C9.00572 10.5558 8.25891 10.7683 7.58355 11.1328C6.90819 11.4972 6.32058 12.0048 5.86178 12.62L5.07178 13.81L2.88178 16C2.70518 16.1773 2.58307 16.4015 2.5299 16.6461C2.47673 16.8906 2.49474 17.1453 2.58178 17.38L3.32178 20.6C3.49405 21.0582 3.76946 21.4706 4.12668 21.8052C4.4839 22.1399 4.91335 22.3879 5.38178 22.53L9.22178 23.68C9.68238 23.8204 10.0982 24.0788 10.428 24.4297C10.7578 24.7805 10.9901 25.2116 11.1018 25.68L11.9218 29.09C12.5292 30.92 13.7023 32.5098 15.2718 33.63C15.4317 34.8067 15.5152 35.9925 15.5218 37.18C15.2878 38.9243 14.9539 40.6539 14.5218 42.36C14.4815 42.5602 14.4865 42.7669 14.5364 42.9649C14.5864 43.163 14.6799 43.3474 14.8103 43.5046C14.9407 43.6618 15.1046 43.7879 15.29 43.8736C15.4753 43.9593 15.6776 44.0025 15.8818 44H16.7718C17.0173 44.0009 17.2584 43.9354 17.4697 43.8104C17.681 43.6854 17.8545 43.5056 17.9718 43.29C18.9118 41.58 21.2318 37.23 21.6618 35.29C22.3712 35.2214 23.0696 35.067 23.7418 34.83L27.0018 33.59C27.9257 33.2592 28.9309 33.2311 29.8718 33.51C30.6881 33.7484 31.5252 33.9091 32.3718 33.99C32.9024 35.5758 33.9615 36.9314 35.3718 37.83L34.8618 42.48C34.8404 42.6738 34.8606 42.8699 34.9211 43.0552C34.9816 43.2406 35.0809 43.4109 35.2125 43.5548C35.3441 43.6987 35.5049 43.8128 35.6841 43.8896C35.8633 43.9664 36.0568 44.004 36.2518 44H37.7618C38.0625 44.0024 38.3556 43.9057 38.596 43.725C38.8364 43.5443 39.0106 43.2895 39.0918 43L40.8918 35.81C40.4877 34.7121 40.2549 33.5586 40.2018 32.39L40.6218 26.97C40.7125 25.8666 40.5824 24.7561 40.239 23.7036C39.8956 22.6511 39.3458 21.6776 38.6218 20.84L38.3518 20.56C42.0018 18.89 44.9018 15.67 45.0018 10.12Z" stroke="#45413C" stroke-width="2" stroke-linecap="round" stroke-linejoin="round"/>
<path id="Vector_5" d="M21.6602 35.2401C22.0902 32.8501 22.3802 30.2401 22.3802 30.2401M35.4102 37.8301C35.4102 37.8301 31.2102 35.6001 32.0002 29.6001" stroke="#45413C" stroke-width="2" stroke-linecap="round" stroke-linejoin="round"/>
<path id="Vector_6" d="M9.16094 15.1601C9.16094 15.3776 9.09642 15.5903 8.97555 15.7712C8.85469 15.9521 8.68289 16.0931 8.48189 16.1763C8.28089 16.2596 8.05972 16.2814 7.84634 16.2389C7.63296 16.1965 7.43696 16.0917 7.28312 15.9379C7.12928 15.784 7.02452 15.588 6.98207 15.3747C6.93963 15.1613 6.96141 14.9401 7.04467 14.7391C7.12793 14.5381 7.26892 14.3663 7.44981 14.2454C7.6307 14.1246 7.84338 14.0601 8.06094 14.0601C8.35268 14.0601 8.63247 14.176 8.83876 14.3822C9.04505 14.5885 9.16094 14.8683 9.16094 15.1601Z" fill="#45413C"/>
<path id="Vector_7" d="M10.2695 17.8601C10.2695 18.1601 10.7695 18.4101 11.3695 18.4101C11.9695 18.4101 12.4695 18.1601 12.4695 17.8601C12.4695 17.5601 11.9795 17.3101 11.3695 17.3101C10.7595 17.3101 10.2695 17.5501 10.2695 17.8601Z" fill="#FFAA54"/>
</g>
</svg>
