<svg width="48" height="48" viewBox="0 0 48 48" fill="none" xmlns="http://www.w3.org/2000/svg">
<g id="streamline-emojis:dog">
<path id="Vector" opacity="0.15" d="M5.28125 44.3199C5.28125 44.5405 5.74451 44.759 6.64457 44.9628C7.54463 45.1666 8.86387 45.3518 10.527 45.5078C12.1901 45.6638 14.1644 45.7876 16.3374 45.872C18.5103 45.9564 20.8393 45.9999 23.1912 45.9999C25.5432 45.9999 27.8722 45.9564 30.0451 45.872C32.2181 45.7876 34.1924 45.6638 35.8555 45.5078C37.5186 45.3518 38.8379 45.1666 39.7379 44.9628C40.638 44.759 41.1012 44.5405 41.1012 44.3199C41.1012 44.0993 40.638 43.8808 39.7379 43.677C38.8379 43.4732 37.5186 43.288 35.8555 43.132C34.1924 42.976 32.2181 42.8522 30.0451 42.7678C27.8722 42.6833 25.5432 42.6399 23.1912 42.6399C20.8393 42.6399 18.5103 42.6833 16.3374 42.7678C14.1644 42.8522 12.1901 42.976 10.527 43.132C8.86387 43.288 7.54463 43.4732 6.64457 43.677C5.74451 43.8808 5.28125 44.0993 5.28125 44.3199Z" fill="#45413C"/>
<path id="Vector_2" d="M44.4995 11.54C43.5809 10.6114 42.4181 9.96177 41.1458 9.66625C39.8734 9.37072 38.5434 9.44135 37.3095 9.86995C36.9713 9.9868 36.6891 10.2262 36.5188 10.541C36.3485 10.8557 36.3023 11.2229 36.3895 11.57C36.4661 11.8633 36.6327 12.1252 36.8659 12.3189C37.0991 12.5127 37.3871 12.6284 37.6895 12.65C39.1295 12.75 41.4795 13.47 40.5795 17.14C40.4042 18.1625 39.9743 19.1244 39.3294 19.937C38.6845 20.7497 37.8455 21.3869 36.8895 21.79C35.8275 20.9879 34.5191 20.5812 33.1895 20.64L25.4395 21C24.0861 21.0567 22.7443 20.7278 21.5705 20.0515C20.3968 19.3752 19.4393 18.3794 18.8095 17.18C18.4986 16.5829 18.2795 15.9423 18.1595 15.28L17.7595 13.28C17.5624 12.2921 17.0505 11.3948 16.3006 10.7223C15.5506 10.0499 14.6029 9.63856 13.5995 9.54996C11.9395 9.39996 9.23953 10.13 8.27953 11.49L6.99953 13.22L3.60953 14.12C3.46314 14.1484 3.32398 14.206 3.20035 14.2893C3.07672 14.3727 2.97115 14.4801 2.88995 14.6052C2.80875 14.7303 2.75358 14.8704 2.72774 15.0173C2.70189 15.1641 2.7059 15.3147 2.73953 15.46L3.46953 18.78C3.51373 18.9637 3.60255 19.1338 3.72813 19.2751C3.85372 19.4164 4.01219 19.5245 4.18953 19.59L8.19953 21C8.68457 21.1769 9.11313 21.4809 9.44036 21.8803C9.76758 22.2796 9.98143 22.7596 10.0595 23.27L10.9995 29.43C11.1327 30.3036 11.4277 31.1446 11.8695 31.91L11.1895 40.77C10.6662 40.829 10.1831 41.0789 9.83256 41.4719C9.48201 41.8649 9.28867 42.3733 9.28953 42.9C9.28953 43.1917 9.40542 43.4715 9.61171 43.6778C9.818 43.8841 10.0978 44 10.3895 44H14.0995C14.3161 43.9925 14.5258 43.9224 14.7033 43.7982C14.8808 43.6739 15.0184 43.5009 15.0995 43.3L18.0995 35.94C20.2963 36.4846 22.5928 36.4846 24.7895 35.94L28.2595 35.08C29.5528 34.7966 30.8835 34.7257 32.1995 34.87C32.5576 35.6148 32.9792 36.3274 33.4595 37C34.0404 37.9496 34.2999 39.0612 34.1995 40.17L34.1495 40.77C33.8614 40.7606 33.5742 40.8092 33.3052 40.9131C33.0363 41.0169 32.7909 41.1738 32.5838 41.3744C32.3767 41.575 32.212 41.8152 32.0996 42.0807C31.9872 42.3462 31.9294 42.6316 31.9295 42.92C31.9346 43.2031 32.0486 43.4734 32.2479 43.6745C32.4472 43.8757 32.7165 43.9923 32.9995 44H36.9995C37.228 43.9848 37.4464 43.9 37.6251 43.757C37.8039 43.6139 37.9346 43.4195 37.9995 43.2L39.7795 37.29C40.4395 35.37 38.7795 34.78 38.7795 31.81L38.9895 31.24C39.4398 30.0432 39.6299 28.7642 39.5471 27.4882C39.4643 26.2122 39.1106 24.9685 38.5095 23.84C46.8795 23.74 48.2895 15 44.4995 11.54Z" fill="#F7E5C6"/>
<path id="Vector_3" d="M3.13953 17.0901C3.28356 16.9578 3.45919 16.8649 3.64953 16.8201L6.99953 15.9301L8.23953 14.1901C9.23953 12.8401 11.8995 12.1001 13.5595 12.2501C14.5723 12.3331 15.5303 12.7442 16.2882 13.4209C17.0462 14.0977 17.5628 15.0032 17.7595 16.0001L18.1595 17.9501C18.281 18.6121 18.5 19.2524 18.8095 19.8501C19.4411 21.0479 20.399 22.0424 21.5724 22.7184C22.7457 23.3945 24.0865 23.7244 25.4395 23.6701L33.1895 23.3501C34.5173 23.2926 35.8243 23.6953 36.8895 24.4901C37.8475 24.0902 38.6885 23.4539 39.3338 22.6407C39.9791 21.8275 40.4077 20.8639 40.5795 19.8401C40.85 18.9638 40.85 18.0264 40.5795 17.1501C40.3992 18.1695 39.9672 19.1277 39.3229 19.938C38.6785 20.7482 37.8421 21.3848 36.8895 21.7901C35.8275 20.988 34.5191 20.5813 33.1895 20.6401L25.4395 21.0001C24.0861 21.0568 22.7443 20.7279 21.5705 20.0516C20.3968 19.3753 19.4393 18.3795 18.8095 17.1801C18.4986 16.583 18.2795 15.9425 18.1595 15.2801L17.7595 13.2801C17.5624 12.2923 17.0505 11.3949 16.3006 10.7225C15.5506 10.05 14.6029 9.6387 13.5995 9.55009C11.9395 9.40009 9.23953 10.1301 8.27953 11.4901L6.99953 13.2201L3.60953 14.1201C3.46314 14.1485 3.32398 14.2061 3.20035 14.2895C3.07672 14.3728 2.97115 14.4803 2.88995 14.6053C2.80875 14.7304 2.75358 14.8705 2.72774 15.0174C2.70189 15.1643 2.7059 15.3148 2.73953 15.4601L3.13953 17.0901ZM37.3495 12.5701C38.5786 12.1485 39.9017 12.0825 41.1666 12.3797C42.4315 12.6769 43.5868 13.3253 44.4995 14.2501C45.4949 15.1967 46.1519 16.4439 46.3695 17.8001C46.6134 16.6019 46.5359 15.3604 46.1448 14.2018C45.7538 13.0432 45.0631 12.0088 44.143 11.2034C43.2229 10.398 42.106 9.85047 40.9059 9.6163C39.7057 9.38213 38.4649 9.46969 37.3095 9.87009C36.9713 9.98694 36.6891 10.2264 36.5188 10.5411C36.3485 10.8558 36.3023 11.223 36.3895 11.5701C36.449 11.8058 36.5688 12.0219 36.7371 12.1973C36.9054 12.3726 37.1165 12.5011 37.3495 12.5701Z" fill="#FFF5E3"/>
<path id="Vector_4" d="M44.4995 11.54C43.5809 10.6114 42.4181 9.96177 41.1458 9.66625C39.8734 9.37072 38.5434 9.44135 37.3095 9.86995C36.9713 9.9868 36.6891 10.2262 36.5188 10.541C36.3485 10.8557 36.3023 11.2229 36.3895 11.57C36.4661 11.8633 36.6327 12.1252 36.8659 12.3189C37.0991 12.5127 37.3871 12.6284 37.6895 12.65C39.1295 12.75 41.4795 13.47 40.5795 17.14C40.4042 18.1625 39.9743 19.1244 39.3294 19.937C38.6845 20.7497 37.8455 21.3869 36.8895 21.79C35.8275 20.9879 34.5191 20.5812 33.1895 20.64L25.4395 21C24.0861 21.0567 22.7443 20.7278 21.5705 20.0515C20.3968 19.3752 19.4393 18.3794 18.8095 17.18C18.4986 16.5829 18.2795 15.9423 18.1595 15.28L17.7595 13.28C17.5624 12.2921 17.0505 11.3948 16.3006 10.7223C15.5506 10.0499 14.6029 9.63856 13.5995 9.54996C11.9395 9.39996 9.23953 10.13 8.27953 11.49L6.99953 13.22L3.60953 14.12C3.46314 14.1484 3.32398 14.206 3.20035 14.2893C3.07672 14.3727 2.97115 14.4801 2.88995 14.6052C2.80875 14.7303 2.75358 14.8704 2.72774 15.0173C2.70189 15.1641 2.7059 15.3147 2.73953 15.46L3.46953 18.78C3.51373 18.9637 3.60255 19.1338 3.72813 19.2751C3.85372 19.4164 4.01219 19.5245 4.18953 19.59L8.19953 21C8.68457 21.1769 9.11313 21.4809 9.44036 21.8803C9.76758 22.2796 9.98143 22.7596 10.0595 23.27L10.9995 29.43C11.1327 30.3036 11.4277 31.1446 11.8695 31.91L11.1895 40.77C10.6662 40.829 10.1831 41.0789 9.83256 41.4719C9.48201 41.8649 9.28867 42.3733 9.28953 42.9C9.28953 43.1917 9.40542 43.4715 9.61171 43.6778C9.818 43.8841 10.0978 44 10.3895 44H14.0995C14.3161 43.9925 14.5258 43.9224 14.7033 43.7982C14.8808 43.6739 15.0184 43.5009 15.0995 43.3L18.0995 35.94C20.2963 36.4846 22.5928 36.4846 24.7895 35.94L28.2595 35.08C29.5528 34.7966 30.8835 34.7257 32.1995 34.87C32.5576 35.6148 32.9792 36.3274 33.4595 37C34.0404 37.9496 34.2999 39.0612 34.1995 40.17L34.1495 40.77C33.8614 40.7606 33.5742 40.8092 33.3052 40.9131C33.0363 41.0169 32.7909 41.1738 32.5838 41.3744C32.3767 41.575 32.212 41.8152 32.0996 42.0807C31.9872 42.3462 31.9294 42.6316 31.9295 42.92C31.9346 43.2031 32.0486 43.4734 32.2479 43.6745C32.4472 43.8757 32.7165 43.9923 32.9995 44H36.9995C37.228 43.9848 37.4463 43.9 37.6251 43.757C37.8039 43.6139 37.9346 43.4195 37.9995 43.2L39.7795 37.29C40.4395 35.37 38.7795 34.78 38.7795 31.81L38.9895 31.24C39.4398 30.0432 39.6299 28.7642 39.5471 27.4882C39.4643 26.2122 39.1106 24.9685 38.5095 23.84C46.8795 23.74 48.2895 15 44.4995 11.54Z" stroke="#45413C" stroke-width="2" stroke-linecap="round" stroke-linejoin="round"/>
<g id="Vector_5">
<path d="M18.0703 35.9401L19.3203 32.8101L18.0703 35.9401Z" fill="white"/>
<path d="M18.0703 35.9401L19.3203 32.8101" stroke="#45413C" stroke-width="2" stroke-linecap="round" stroke-linejoin="round"/>
</g>
<path id="Vector_6" d="M31.5385 29.45L31.3485 31.45C31.3298 32.6344 31.6119 33.8043 32.1685 34.8499" stroke="#45413C" stroke-width="2" stroke-linecap="round" stroke-linejoin="round"/>
<g id="Vector_7">
<path d="M12.6016 10.4201C12.8376 9.08127 13.213 7.77081 13.7216 6.51008C14.0716 5.88008 16.1716 7.69008 15.9616 12.1001" fill="#FFF5E3"/>
<path d="M12.6016 10.4201C12.8376 9.08127 13.213 7.77081 13.7216 6.51008C14.0716 5.88008 16.1716 7.69008 15.9616 12.1001" stroke="#45413C" stroke-width="2" stroke-linecap="round" stroke-linejoin="round"/>
</g>
<path id="Vector_8" d="M11.0812 13.8901C11.0832 14.0689 11.0318 14.2443 10.9337 14.3938C10.8356 14.5433 10.6951 14.6602 10.5303 14.7296C10.3654 14.7989 10.1836 14.8176 10.0081 14.7832C9.8326 14.7488 9.67132 14.6629 9.54485 14.5364C9.41839 14.4099 9.33247 14.2487 9.29806 14.0731C9.26365 13.8976 9.28232 13.7159 9.35167 13.551C9.42103 13.3861 9.53793 13.2457 9.68746 13.1476C9.83698 13.0494 10.0124 12.9981 10.1912 13.0001C10.4272 13.0001 10.6536 13.0938 10.8205 13.2607C10.9874 13.4276 11.0812 13.654 11.0812 13.8901Z" fill="#45413C"/>
<path id="Vector_9" d="M12.6016 15.5201C12.6016 15.7701 13.0016 15.9701 13.5016 15.9701C14.0016 15.9701 14.3916 15.7701 14.3916 15.5201C14.3916 15.2701 13.9916 15.0701 13.5016 15.0701C13.0116 15.0701 12.6016 15.2701 12.6016 15.5201Z" fill="#FFAA54"/>
</g>
</svg>
