<svg width="157" height="48" viewBox="0 0 157 48" fill="none" xmlns="http://www.w3.org/2000/svg">
<path d="M0.852273 9.58807V6.54545H15.1875V9.58807H9.84375V24H6.19602V9.58807H0.852273ZM16.1207 24V10.9091H19.6406V13.1932H19.777C20.0156 12.3807 20.4162 11.767 20.9787 11.3523C21.5412 10.9318 22.1889 10.7216 22.9219 10.7216C23.1037 10.7216 23.2997 10.733 23.5099 10.7557C23.7202 10.7784 23.9048 10.8097 24.0639 10.8494V14.071C23.8935 14.0199 23.6577 13.9744 23.3565 13.9347C23.0554 13.8949 22.7798 13.875 22.5298 13.875C21.9957 13.875 21.5185 13.9915 21.098 14.2244C20.6832 14.4517 20.3537 14.7699 20.1094 15.179C19.8707 15.5881 19.7514 16.0597 19.7514 16.5938V24H16.1207ZM34.3359 18.4261V10.9091H37.9666V24H34.4808V21.6222H34.3445C34.049 22.3892 33.5575 23.0057 32.87 23.4716C32.1882 23.9375 31.3558 24.1705 30.3729 24.1705C29.4979 24.1705 28.728 23.9716 28.0632 23.5739C27.3984 23.1761 26.8786 22.6108 26.5036 21.8778C26.1342 21.1449 25.9467 20.267 25.9411 19.2443V10.9091H29.5717V18.5966C29.5774 19.3693 29.7848 19.9801 30.1939 20.429C30.603 20.8778 31.1513 21.1023 31.8388 21.1023C32.2763 21.1023 32.6854 21.0028 33.0661 20.804C33.4467 20.5994 33.7536 20.2983 33.9865 19.9006C34.2251 19.5028 34.3416 19.0114 34.3359 18.4261ZM51.7628 14.642L48.4389 14.8466C48.3821 14.5625 48.2599 14.3068 48.0724 14.0795C47.8849 13.8466 47.6378 13.6619 47.331 13.5256C47.0298 13.3835 46.669 13.3125 46.2486 13.3125C45.6861 13.3125 45.2116 13.4318 44.8253 13.6705C44.4389 13.9034 44.2457 14.2159 44.2457 14.608C44.2457 14.9205 44.3707 15.1847 44.6207 15.4006C44.8707 15.6165 45.2997 15.7898 45.9077 15.9205L48.277 16.3977C49.5497 16.6591 50.4986 17.0795 51.1236 17.6591C51.7486 18.2386 52.0611 19 52.0611 19.9432C52.0611 20.8011 51.8082 21.554 51.3026 22.2017C50.8026 22.8494 50.1151 23.3551 49.2401 23.7188C48.3707 24.0767 47.3679 24.2557 46.2315 24.2557C44.4986 24.2557 43.1179 23.8949 42.0895 23.1733C41.0668 22.446 40.4673 21.4574 40.2912 20.2074L43.8622 20.0199C43.9702 20.5483 44.2315 20.9517 44.6463 21.2301C45.0611 21.5028 45.5923 21.6392 46.2401 21.6392C46.8764 21.6392 47.3878 21.517 47.7741 21.2727C48.1662 21.0227 48.3651 20.7017 48.3707 20.3097C48.3651 19.9801 48.2259 19.7102 47.9531 19.5C47.6804 19.2841 47.2599 19.1193 46.6918 19.0057L44.4247 18.554C43.1463 18.2983 42.1946 17.8551 41.5696 17.2244C40.9503 16.5937 40.6406 15.7898 40.6406 14.8125C40.6406 13.9716 40.8679 13.2472 41.3224 12.6392C41.7827 12.0312 42.4276 11.5625 43.2571 11.233C44.0923 10.9034 45.0696 10.7386 46.1889 10.7386C47.8423 10.7386 49.1435 11.0881 50.0923 11.7869C51.0469 12.4858 51.6037 13.4375 51.7628 14.642ZM61.3104 10.9091V13.6364H53.4268V10.9091H61.3104ZM55.2166 7.77273H58.8473V19.9773C58.8473 20.3125 58.8984 20.5739 59.0007 20.7614C59.103 20.9432 59.245 21.071 59.4268 21.1449C59.6143 21.2187 59.8303 21.2557 60.0746 21.2557C60.245 21.2557 60.4155 21.2415 60.5859 21.2131C60.7564 21.179 60.8871 21.1534 60.978 21.1364L61.549 23.8381C61.3672 23.8949 61.1115 23.9602 60.782 24.0341C60.4524 24.1136 60.0518 24.1619 59.5803 24.179C58.7053 24.2131 57.9382 24.0966 57.2791 23.8295C56.6257 23.5625 56.1172 23.1477 55.7536 22.5852C55.3899 22.0227 55.2109 21.3125 55.2166 20.4545V7.77273ZM65.9169 28.9091C65.4567 28.9091 65.0249 28.8722 64.6214 28.7983C64.2237 28.7301 63.8942 28.642 63.6328 28.5341L64.451 25.8239C64.8771 25.9545 65.2607 26.0256 65.6016 26.0369C65.9482 26.0483 66.2464 25.9688 66.4964 25.7983C66.7521 25.6278 66.9595 25.3381 67.1186 24.929L67.3317 24.375L62.6357 10.9091H66.4538L69.1641 20.5227H69.3004L72.0362 10.9091H75.88L70.7919 25.4148C70.5476 26.1193 70.2152 26.733 69.7947 27.2557C69.38 27.7841 68.8544 28.1903 68.218 28.4744C67.5817 28.7642 66.8146 28.9091 65.9169 28.9091Z" fill="#5D616C"/>
<path d="M76.321 9.58807V6.54545H90.6562V9.58807H85.3125V24H81.6648V9.58807H76.321ZM94.9006 24.2472C94.0653 24.2472 93.321 24.1023 92.6676 23.8125C92.0142 23.517 91.4972 23.0824 91.1165 22.5085C90.7415 21.929 90.554 21.2074 90.554 20.3438C90.554 19.6165 90.6875 19.0057 90.9545 18.5114C91.2216 18.017 91.5852 17.6193 92.0455 17.3182C92.5057 17.017 93.0284 16.7898 93.6136 16.6364C94.2045 16.483 94.8239 16.375 95.4716 16.3125C96.233 16.233 96.8466 16.1591 97.3125 16.0909C97.7784 16.017 98.1165 15.9091 98.3267 15.767C98.5369 15.625 98.642 15.4148 98.642 15.1364V15.0852C98.642 14.5455 98.4716 14.1278 98.1307 13.8324C97.7955 13.5369 97.3182 13.3892 96.6989 13.3892C96.0455 13.3892 95.5256 13.5341 95.1392 13.8239C94.7528 14.108 94.4972 14.4659 94.3722 14.8977L91.0142 14.625C91.1847 13.8295 91.5199 13.142 92.0199 12.5625C92.5199 11.9773 93.1648 11.5284 93.9545 11.2159C94.75 10.8977 95.6705 10.7386 96.7159 10.7386C97.4432 10.7386 98.1392 10.8239 98.804 10.9943C99.4744 11.1648 100.068 11.429 100.585 11.7869C101.108 12.1449 101.52 12.6051 101.821 13.1676C102.122 13.7244 102.273 14.392 102.273 15.1705V24H98.8295V22.1847H98.7273C98.517 22.5938 98.2358 22.9545 97.8835 23.267C97.5312 23.5739 97.108 23.8153 96.6136 23.9915C96.1193 24.1619 95.5483 24.2472 94.9006 24.2472ZM95.9403 21.7415C96.4744 21.7415 96.946 21.6364 97.3551 21.4261C97.7642 21.2102 98.0852 20.9205 98.3182 20.5568C98.5511 20.1932 98.6676 19.7812 98.6676 19.321V17.9318C98.554 18.0057 98.3977 18.0739 98.1989 18.1364C98.0057 18.1932 97.7869 18.2472 97.5426 18.2983C97.2983 18.3437 97.054 18.3864 96.8097 18.4261C96.5653 18.4602 96.3438 18.4915 96.1449 18.5199C95.7188 18.5824 95.3466 18.6818 95.0284 18.8182C94.7102 18.9545 94.4631 19.1392 94.2869 19.3722C94.1108 19.5994 94.0227 19.8835 94.0227 20.2244C94.0227 20.7188 94.2017 21.0966 94.5597 21.358C94.9233 21.6136 95.3835 21.7415 95.9403 21.7415ZM105.089 24V10.9091H108.72V24H105.089ZM106.913 9.22159C106.374 9.22159 105.911 9.04261 105.524 8.68466C105.143 8.32102 104.953 7.88636 104.953 7.38068C104.953 6.88068 105.143 6.4517 105.524 6.09375C105.911 5.73011 106.374 5.54829 106.913 5.54829C107.453 5.54829 107.913 5.73011 108.294 6.09375C108.68 6.4517 108.874 6.88068 108.874 7.38068C108.874 7.88636 108.68 8.32102 108.294 8.68466C107.913 9.04261 107.453 9.22159 106.913 9.22159ZM115.259 6.54545V24H111.629V6.54545H115.259ZM129.06 14.642L125.736 14.8466C125.679 14.5625 125.557 14.3068 125.369 14.0795C125.182 13.8466 124.935 13.6619 124.628 13.5256C124.327 13.3835 123.966 13.3125 123.545 13.3125C122.983 13.3125 122.509 13.4318 122.122 13.6705C121.736 13.9034 121.543 14.2159 121.543 14.608C121.543 14.9205 121.668 15.1847 121.918 15.4006C122.168 15.6165 122.597 15.7898 123.205 15.9205L125.574 16.3977C126.847 16.6591 127.795 17.0795 128.42 17.6591C129.045 18.2386 129.358 19 129.358 19.9432C129.358 20.8011 129.105 21.554 128.599 22.2017C128.099 22.8494 127.412 23.3551 126.537 23.7188C125.668 24.0767 124.665 24.2557 123.528 24.2557C121.795 24.2557 120.415 23.8949 119.386 23.1733C118.364 22.446 117.764 21.4574 117.588 20.2074L121.159 20.0199C121.267 20.5483 121.528 20.9517 121.943 21.2301C122.358 21.5028 122.889 21.6392 123.537 21.6392C124.173 21.6392 124.685 21.517 125.071 21.2727C125.463 21.0227 125.662 20.7017 125.668 20.3097C125.662 19.9801 125.523 19.7102 125.25 19.5C124.977 19.2841 124.557 19.1193 123.989 19.0057L121.722 18.554C120.443 18.2983 119.491 17.8551 118.866 17.2244C118.247 16.5937 117.938 15.7898 117.938 14.8125C117.938 13.9716 118.165 13.2472 118.619 12.6392C119.08 12.0312 119.724 11.5625 120.554 11.233C121.389 10.9034 122.366 10.7386 123.486 10.7386C125.139 10.7386 126.44 11.0881 127.389 11.7869C128.344 12.4858 128.901 13.4375 129.06 14.642Z" fill="black"/>
<path d="M140.072 22.9992C139.82 23.0008 139.568 22.9939 139.317 22.9785C137.329 22.8558 135.552 22.2063 134.601 20.9352C134.26 20.4798 134.342 19.8494 134.734 19.5084C135.127 19.1674 135.779 19.1427 136.38 19.532C137.417 20.2043 138.557 19.9667 139.298 19.2517C140.04 18.5367 140.376 17.3693 139.641 16.021C138.77 14.4252 138.155 11.6547 138.726 8.91316C139.297 6.17161 141.131 3.47483 145.071 2.29363C146.591 1.83789 148.65 1.533 150.595 1.94551C152.616 2.34458 154.947 3.52388 155.449 4.81135C155.029 4.40788 154.566 4.12384 154.077 3.91268C154.909 4.86266 155.519 6.17102 155.748 7.91668L155.863 8.79037L155.122 8.31374C154.645 8.007 154.187 7.70511 153.755 7.47838C153.875 7.74502 153.984 8.0787 154.106 8.51268C153.602 7.8229 153.029 7.36131 152.354 7.08353C151.934 7.10638 151.52 7.30455 151.027 7.8145C150.511 8.34794 150.204 9.27194 150.007 10.4331C149.81 11.5944 149.714 12.9728 149.523 14.3782C149.14 17.1892 148.346 20.185 145.448 21.6908C143.769 22.5627 141.856 22.9885 140.072 22.9993L140.072 22.9992ZM140.067 22.1813C141.722 22.1697 143.523 21.7697 145.071 20.9655C147.632 19.635 148.34 17.0085 148.713 14.2681C148.899 12.8978 148.994 11.5183 149.201 10.2963C149.261 9.94419 149.33 9.60412 149.414 9.27975C148.713 9.27794 148.177 9.65697 147.521 10.4022C147.856 9.02123 148.065 8.74314 148.688 7.87962C147.406 8.25357 145.934 9.45717 145.012 10.7887C144.863 8.97019 145.93 7.53854 146.523 6.97746C145.38 7.6221 143.766 8.86361 142.68 11.0033C142.634 9.12213 143.222 7.01937 144.335 5.7146C142.768 6.23845 141.385 10.2316 140.456 11.5104C139.864 10.002 140.323 7.46507 141.186 5.60157C140.295 6.63865 139.784 7.8437 139.526 9.07981C139.003 11.5929 139.606 14.2496 140.358 15.6297C141.246 17.2573 140.854 18.8879 139.866 19.8404C138.877 20.7929 137.284 21.0921 135.935 20.218C135.547 19.9659 135.359 20.0485 135.271 20.1251C135.183 20.2017 135.146 20.2995 135.255 20.4454C135.986 21.4223 137.532 22.0495 139.367 22.1627C139.597 22.1768 139.83 22.1831 140.067 22.1815L140.067 22.1813Z" fill="black"/>
<path d="M0.719105 44V37.4545H3.0522C3.56143 37.4545 3.98331 37.5472 4.31783 37.7326C4.65234 37.918 4.9027 38.1715 5.06889 38.4933C5.23509 38.8129 5.31818 39.1729 5.31818 39.5735C5.31818 39.9762 5.23402 40.3384 5.0657 40.6602C4.8995 40.9798 4.64808 41.2333 4.31143 41.4208C3.97692 41.6062 3.55611 41.6989 3.04901 41.6989H1.4446V40.8615H2.95952C3.28125 40.8615 3.54226 40.8061 3.74254 40.6953C3.94283 40.5824 4.08984 40.429 4.18359 40.2351C4.27734 40.0412 4.32422 39.8207 4.32422 39.5735C4.32422 39.3263 4.27734 39.1069 4.18359 38.9151C4.08984 38.7234 3.94176 38.5732 3.73935 38.4645C3.53906 38.3558 3.27486 38.3015 2.94673 38.3015H1.70668V44H0.719105ZM8.40554 44.0991C7.94531 44.0991 7.54368 43.9936 7.20064 43.7827C6.8576 43.5717 6.59126 43.2766 6.40163 42.8974C6.212 42.5181 6.11719 42.0749 6.11719 41.5678C6.11719 41.0586 6.212 40.6133 6.40163 40.2319C6.59126 39.8505 6.8576 39.5543 7.20064 39.3434C7.54368 39.1325 7.94531 39.027 8.40554 39.027C8.86577 39.027 9.2674 39.1325 9.61044 39.3434C9.95348 39.5543 10.2198 39.8505 10.4094 40.2319C10.5991 40.6133 10.6939 41.0586 10.6939 41.5678C10.6939 42.0749 10.5991 42.5181 10.4094 42.8974C10.2198 43.2766 9.95348 43.5717 9.61044 43.7827C9.2674 43.9936 8.86577 44.0991 8.40554 44.0991ZM8.40874 43.2969C8.70703 43.2969 8.95419 43.218 9.15021 43.0604C9.34624 42.9027 9.49112 42.6928 9.58487 42.4308C9.68075 42.1687 9.72869 41.88 9.72869 41.5646C9.72869 41.2514 9.68075 40.9638 9.58487 40.7017C9.49112 40.4375 9.34624 40.2255 9.15021 40.0657C8.95419 39.9059 8.70703 39.826 8.40874 39.826C8.10831 39.826 7.85902 39.9059 7.66087 40.0657C7.46484 40.2255 7.31889 40.4375 7.22301 40.7017C7.12926 40.9638 7.08239 41.2514 7.08239 41.5646C7.08239 41.88 7.12926 42.1687 7.22301 42.4308C7.31889 42.6928 7.46484 42.9027 7.66087 43.0604C7.85902 43.218 8.10831 43.2969 8.40874 43.2969ZM12.6754 44L11.2308 39.0909H12.2184L13.1804 42.696H13.2283L14.1935 39.0909H15.1811L16.1399 42.68H16.1879L17.1435 39.0909H18.131L16.6896 44H15.7148L14.7177 40.4556H14.6442L13.647 44H12.6754ZM21.0043 44.0991C20.5206 44.0991 20.104 43.9957 19.7546 43.7891C19.4073 43.5803 19.1388 43.2873 18.9492 42.9102C18.7617 42.5309 18.668 42.0866 18.668 41.5774C18.668 41.0746 18.7617 40.6314 18.9492 40.2479C19.1388 39.8643 19.4031 39.565 19.7418 39.3498C20.0827 39.1346 20.4812 39.027 20.9371 39.027C21.2141 39.027 21.4826 39.0728 21.7425 39.1644C22.0025 39.256 22.2358 39.3999 22.4425 39.5959C22.6491 39.7919 22.8121 40.0465 22.9315 40.3597C23.0508 40.6708 23.1104 41.049 23.1104 41.4943V41.8331H19.2081V41.1172H22.174C22.174 40.8658 22.1229 40.6431 22.0206 40.4492C21.9183 40.2532 21.7745 40.0987 21.5891 39.9858C21.4059 39.8729 21.1907 39.8164 20.9435 39.8164C20.6751 39.8164 20.4407 39.8825 20.2404 40.0146C20.0423 40.1445 19.8888 40.315 19.7802 40.5259C19.6737 40.7347 19.6204 40.9616 19.6204 41.2067V41.766C19.6204 42.0941 19.6779 42.3732 19.793 42.6033C19.9102 42.8335 20.0732 43.0092 20.282 43.1307C20.4908 43.25 20.7347 43.3097 21.0138 43.3097C21.195 43.3097 21.3601 43.2841 21.5092 43.233C21.6584 43.1797 21.7873 43.1009 21.896 42.9964C22.0046 42.892 22.0877 42.7631 22.1452 42.6097L23.0497 42.7727C22.9773 43.0391 22.8473 43.2724 22.6598 43.4727C22.4744 43.6708 22.2411 43.8253 21.9599 43.9361C21.6808 44.0447 21.3622 44.0991 21.0043 44.0991ZM24.1707 44V39.0909H25.0944V39.8707H25.1455C25.235 39.6065 25.3927 39.3988 25.6185 39.2475C25.8465 39.0941 26.1043 39.0174 26.392 39.0174C26.4516 39.0174 26.5219 39.0195 26.6029 39.0238C26.686 39.0281 26.751 39.0334 26.7979 39.0398V39.9538C26.7595 39.9432 26.6913 39.9315 26.5933 39.9187C26.4953 39.9038 26.3973 39.8963 26.2993 39.8963C26.0734 39.8963 25.8721 39.9442 25.6952 40.0401C25.5205 40.1339 25.382 40.2649 25.2797 40.4332C25.1775 40.5994 25.1263 40.7891 25.1263 41.0021V44H24.1707ZM29.5648 44.0991C29.0811 44.0991 28.6646 43.9957 28.3152 43.7891C27.9679 43.5803 27.6994 43.2873 27.5098 42.9102C27.3223 42.5309 27.2285 42.0866 27.2285 41.5774C27.2285 41.0746 27.3223 40.6314 27.5098 40.2479C27.6994 39.8643 27.9636 39.565 28.3024 39.3498C28.6433 39.1346 29.0417 39.027 29.4977 39.027C29.7747 39.027 30.0431 39.0728 30.3031 39.1644C30.563 39.256 30.7963 39.3999 31.003 39.5959C31.2097 39.7919 31.3727 40.0465 31.492 40.3597C31.6113 40.6708 31.671 41.049 31.671 41.4943V41.8331H27.7686V41.1172H30.7346C30.7346 40.8658 30.6834 40.6431 30.5811 40.4492C30.4789 40.2532 30.335 40.0987 30.1497 39.9858C29.9664 39.8729 29.7512 39.8164 29.5041 39.8164C29.2356 39.8164 29.0012 39.8825 28.801 40.0146C28.6028 40.1445 28.4494 40.315 28.3407 40.5259C28.2342 40.7347 28.1809 40.9616 28.1809 41.2067V41.766C28.1809 42.0941 28.2385 42.3732 28.3535 42.6033C28.4707 42.8335 28.6337 43.0092 28.8425 43.1307C29.0513 43.25 29.2953 43.3097 29.5744 43.3097C29.7555 43.3097 29.9206 43.2841 30.0698 43.233C30.2189 43.1797 30.3478 43.1009 30.4565 42.9964C30.5652 42.892 30.6483 42.7631 30.7058 42.6097L31.6103 42.7727C31.5378 43.0391 31.4078 43.2724 31.2203 43.4727C31.035 43.6708 30.8017 43.8253 30.5204 43.9361C30.2413 44.0447 29.9228 44.0991 29.5648 44.0991ZM34.569 44.0959C34.1727 44.0959 33.819 43.9947 33.5079 43.7923C33.199 43.5877 32.9561 43.2969 32.7792 42.9197C32.6045 42.5405 32.5171 42.0856 32.5171 41.555C32.5171 41.0245 32.6056 40.5707 32.7824 40.1935C32.9614 39.8164 33.2064 39.5277 33.5175 39.3274C33.8286 39.1271 34.1812 39.027 34.5754 39.027C34.8801 39.027 35.1251 39.0781 35.3105 39.1804C35.498 39.2805 35.6428 39.3977 35.7451 39.532C35.8495 39.6662 35.9305 39.7844 35.988 39.8867H36.0455V37.4545H37.0012V44H36.0679V43.2362H35.988C35.9305 43.3406 35.8474 43.4599 35.7387 43.5941C35.6322 43.7283 35.4852 43.8455 35.2977 43.9457C35.1102 44.0458 34.8673 44.0959 34.569 44.0959ZM34.7799 43.2809C35.0548 43.2809 35.287 43.2085 35.4767 43.0636C35.6684 42.9165 35.8133 42.7131 35.9113 42.4531C36.0115 42.1932 36.0615 41.8906 36.0615 41.5455C36.0615 41.2045 36.0125 40.9062 35.9145 40.6506C35.8165 40.3949 35.6727 40.1957 35.483 40.0529C35.2934 39.9102 35.059 39.8388 34.7799 39.8388C34.4923 39.8388 34.2526 39.9134 34.0608 40.0625C33.8691 40.2116 33.7242 40.4151 33.6262 40.6729C33.5303 40.9308 33.4823 41.2216 33.4823 41.5455C33.4823 41.8736 33.5313 42.1687 33.6294 42.4308C33.7274 42.6928 33.8722 42.9006 34.064 43.054C34.2579 43.2053 34.4965 43.2809 34.7799 43.2809ZM40.8236 44V37.4545H41.7792V39.8867H41.8367C41.8921 39.7844 41.972 39.6662 42.0764 39.532C42.1808 39.3977 42.3257 39.2805 42.5111 39.1804C42.6965 39.0781 42.9415 39.027 43.2462 39.027C43.6425 39.027 43.9962 39.1271 44.3073 39.3274C44.6183 39.5277 44.8623 39.8164 45.0392 40.1935C45.2181 40.5707 45.3076 41.0245 45.3076 41.555C45.3076 42.0856 45.2192 42.5405 45.0423 42.9197C44.8655 43.2969 44.6226 43.5877 44.3137 43.7923C44.0047 43.9947 43.6521 44.0959 43.2558 44.0959C42.9575 44.0959 42.7135 44.0458 42.5239 43.9457C42.3364 43.8455 42.1894 43.7283 42.0828 43.5941C41.9763 43.4599 41.8943 43.3406 41.8367 43.2362H41.7568V44H40.8236ZM41.76 41.5455C41.76 41.8906 41.8101 42.1932 41.9102 42.4531C42.0104 42.7131 42.1553 42.9165 42.3449 43.0636C42.5345 43.2085 42.7668 43.2809 43.0416 43.2809C43.3271 43.2809 43.5658 43.2053 43.7575 43.054C43.9493 42.9006 44.0942 42.6928 44.1922 42.4308C44.2923 42.1687 44.3424 41.8736 44.3424 41.5455C44.3424 41.2216 44.2934 40.9308 44.1954 40.6729C44.0995 40.4151 43.9546 40.2116 43.7607 40.0625C43.569 39.9134 43.3293 39.8388 43.0416 39.8388C42.7646 39.8388 42.5303 39.9102 42.3385 40.0529C42.1489 40.1957 42.0051 40.3949 41.907 40.6506C41.809 40.9062 41.76 41.2045 41.76 41.5455ZM46.8177 45.8409C46.675 45.8409 46.545 45.8292 46.4278 45.8058C46.3106 45.7844 46.2233 45.761 46.1657 45.7354L46.3959 44.9524C46.5706 44.9993 46.7261 45.0195 46.8625 45.0131C46.9988 45.0067 47.1192 44.9556 47.2236 44.8597C47.3302 44.7638 47.4239 44.6072 47.5049 44.3899L47.6231 44.0639L45.827 39.0909H46.8497L48.093 42.9006H48.1441L49.3873 39.0909H50.4133L48.3902 44.6552C48.2964 44.9109 48.1771 45.1271 48.0322 45.304C47.8873 45.483 47.7148 45.6172 47.5145 45.7067C47.3142 45.7962 47.0819 45.8409 46.8177 45.8409ZM53.2362 37.4545H54.7862L56.2788 40.2734H56.3427L57.8352 37.4545H59.3853L56.9979 41.6861V44H55.6236V41.6861L53.2362 37.4545ZM61.3245 44.0959C60.8195 44.0959 60.3849 43.9936 60.0205 43.7891C59.6583 43.5824 59.3792 43.2905 59.1831 42.9134C58.9871 42.5341 58.8891 42.0856 58.8891 41.5678C58.8891 41.0629 58.9871 40.6197 59.1831 40.2383C59.3792 39.8569 59.6551 39.5597 60.0109 39.3466C60.3689 39.1335 60.7886 39.027 61.2702 39.027C61.594 39.027 61.8955 39.0792 62.1746 39.1836C62.4559 39.2859 62.7009 39.4403 62.9097 39.647C63.1207 39.8537 63.2847 40.1136 63.4019 40.4268C63.5191 40.7379 63.5777 41.1023 63.5777 41.5199V41.8938H59.4324V41.0501H62.2961C62.2961 40.854 62.2535 40.6804 62.1682 40.5291C62.083 40.3778 61.9648 40.2596 61.8135 40.1744C61.6643 40.087 61.4907 40.0433 61.2925 40.0433C61.0858 40.0433 60.9026 40.0913 60.7428 40.1871C60.5851 40.2809 60.4616 40.4077 60.3721 40.5675C60.2826 40.7251 60.2368 40.9009 60.2346 41.0948V41.897C60.2346 42.1399 60.2794 42.3498 60.3689 42.5266C60.4605 42.7035 60.5894 42.8398 60.7556 42.9357C60.9218 43.0316 61.1189 43.0795 61.3469 43.0795C61.4981 43.0795 61.6366 43.0582 61.7623 43.0156C61.8881 42.973 61.9956 42.9091 62.0851 42.8239C62.1746 42.7386 62.2428 42.6342 62.2897 42.5107L63.5489 42.5938C63.485 42.8963 63.354 43.1605 63.1558 43.3864C62.9598 43.6101 62.7062 43.7848 62.3952 43.9105C62.0862 44.0341 61.7293 44.0959 61.3245 44.0959ZM67.0773 39.0909V40.1136H64.121V39.0909H67.0773ZM64.7922 37.9148H66.1537V42.4915C66.1537 42.6172 66.1729 42.7152 66.2112 42.7855C66.2496 42.8537 66.3028 42.9016 66.371 42.9293C66.4413 42.957 66.5223 42.9709 66.6139 42.9709C66.6778 42.9709 66.7417 42.9656 66.8057 42.9549C66.8696 42.9421 66.9186 42.9325 66.9527 42.9261L67.1668 43.9393C67.0986 43.9606 67.0028 43.9851 66.8792 44.0128C66.7556 44.0426 66.6054 44.0607 66.4285 44.0671C66.1004 44.0799 65.8128 44.0362 65.5656 43.9361C65.3206 43.8359 65.1299 43.6804 64.9935 43.4695C64.8572 43.2585 64.79 42.9922 64.7922 42.6705V37.9148ZM67.9642 44V39.0909H69.3257V44H67.9642ZM68.6482 38.4581C68.4458 38.4581 68.2721 38.391 68.1272 38.2567C67.9845 38.1204 67.9131 37.9574 67.9131 37.7678C67.9131 37.5803 67.9845 37.4194 68.1272 37.2852C68.2721 37.1488 68.4458 37.0806 68.6482 37.0806C68.8506 37.0806 69.0232 37.1488 69.1659 37.2852C69.3108 37.4194 69.3833 37.5803 69.3833 37.7678C69.3833 37.9574 69.3108 38.1204 69.1659 38.2567C69.0232 38.391 68.8506 38.4581 68.6482 38.4581Z" fill="black"/>
</svg>
